<?xml version="1.0" encoding="utf-8"?>
<!-- Generator: Adobe Illustrator 22.0.1, SVG Export Plug-In . SVG Version: 6.00 Build 0)  -->
<svg version="1.1" id="Capa_1" xmlns="http://www.w3.org/2000/svg" xmlns:xlink="http://www.w3.org/1999/xlink" x="0px" y="0px"
	 viewBox="0 0 140 60" style="enable-background:new 0 0 140 60;" xml:space="preserve">
<g>
	<path style="fill:#231F20;" d="M17.2,53.6c0,1.6-0.3,2.5-1,3.1c-0.7,0.6-1.6,0.8-2.5,0.8c-0.8,0-1.7-0.2-2.2-0.6l0.3-0.9
		c0.4,0.3,1.1,0.5,2,0.5c1.3,0,2.2-0.7,2.2-2.4v-0.7h0c-0.4,0.6-1.1,1.1-2.1,1.1c-1.7,0-2.9-1.4-2.9-3.3c0-2.3,1.5-3.6,3.1-3.6
		c1.2,0,1.8,0.6,2.1,1.2h0l0-1h1.1c0,0.5-0.1,1-0.1,1.8V53.6z M16,50.5c0-0.2,0-0.4-0.1-0.5c-0.2-0.7-0.8-1.3-1.7-1.3
		c-1.2,0-2,1-2,2.6c0,1.3,0.7,2.4,2,2.4c0.8,0,1.5-0.5,1.7-1.3C16,52.2,16,52,16,51.7V50.5z"/>
	<path style="fill:#231F20;" d="M23.8,53c0,0.6,0,1.2,0.1,1.6h-1.1l-0.1-0.8h0c-0.4,0.5-1.1,1-2.1,1c-1.4,0-2.1-1-2.1-1.9
		c0-1.6,1.4-2.5,4.1-2.5v-0.1c0-0.6-0.2-1.6-1.5-1.6c-0.6,0-1.3,0.2-1.8,0.5L19,48.3c0.6-0.3,1.4-0.6,2.2-0.6c2.1,0,2.6,1.4,2.6,2.8
		V53z M22.6,51.2c-1.3,0-2.9,0.2-2.9,1.5c0,0.8,0.5,1.2,1.1,1.2c0.9,0,1.5-0.6,1.7-1.1c0-0.1,0.1-0.3,0.1-0.4V51.2z"/>
	<path style="fill:#231F20;" d="M25.5,50c0-0.8,0-1.5-0.1-2.1h1.1l0.1,1.3h0c0.3-0.9,1.1-1.5,1.9-1.5c0.1,0,0.2,0,0.3,0v1.2
		c-0.1,0-0.3,0-0.4,0c-0.9,0-1.5,0.7-1.6,1.6c0,0.2,0,0.4,0,0.6v3.6h-1.2V50z"/>
	<path style="fill:#231F20;" d="M34.6,53c0,0.6,0,1.2,0.1,1.6h-1.1l-0.1-0.8h0c-0.4,0.5-1.1,1-2.1,1c-1.4,0-2.1-1-2.1-1.9
		c0-1.6,1.5-2.5,4.1-2.5v-0.1c0-0.6-0.2-1.6-1.5-1.6c-0.6,0-1.3,0.2-1.8,0.5l-0.3-0.8c0.6-0.3,1.4-0.6,2.2-0.6
		c2.1,0,2.6,1.4,2.6,2.8V53z M33.4,51.2c-1.3,0-2.9,0.2-2.9,1.5c0,0.8,0.5,1.2,1.1,1.2c0.9,0,1.5-0.6,1.7-1.1c0-0.1,0.1-0.3,0.1-0.4
		V51.2z"/>
	<path style="fill:#231F20;" d="M36.3,49.7c0-0.7,0-1.3-0.1-1.8h1.1l0.1,1.1h0c0.3-0.6,1.1-1.3,2.2-1.3c0.9,0,2.4,0.6,2.4,2.9v4
		h-1.2v-3.9c0-1.1-0.4-2-1.6-2c-0.8,0-1.4,0.6-1.6,1.3c-0.1,0.2-0.1,0.4-0.1,0.6v4.1h-1.2V49.7z"/>
	<path style="fill:#231F20;" d="M45.3,46.3v1.6H47v0.9h-1.8v3.6c0,0.8,0.2,1.3,0.9,1.3c0.3,0,0.5,0,0.7-0.1l0.1,0.9
		c-0.2,0.1-0.6,0.2-1.1,0.2c-0.6,0-1-0.2-1.3-0.5c-0.3-0.4-0.5-1-0.5-1.8v-3.7h-1v-0.9h1v-1.2L45.3,46.3z"/>
	<path style="fill:#231F20;" d="M50.7,45L49,47h-0.9l1.2-2H50.7z M48.2,47.9h1.2v6.7h-1.2V47.9z"/>
	<path style="fill:#231F20;" d="M56,53c0,0.6,0,1.2,0.1,1.6H55l-0.1-0.8h0c-0.4,0.5-1.1,1-2.1,1c-1.4,0-2.1-1-2.1-1.9
		c0-1.6,1.4-2.5,4.1-2.5v-0.1c0-0.6-0.2-1.6-1.5-1.6c-0.6,0-1.3,0.2-1.8,0.5l-0.3-0.8c0.6-0.3,1.4-0.6,2.2-0.6
		c2.1,0,2.6,1.4,2.6,2.8V53z M54.8,51.2c-1.3,0-2.9,0.2-2.9,1.5c0,0.8,0.5,1.2,1.1,1.2c0.9,0,1.5-0.6,1.7-1.1c0-0.1,0.1-0.3,0.1-0.4
		V51.2z"/>
	<path style="fill:#231F20;" d="M66.3,44.7v8.1c0,0.6,0,1.3,0.1,1.7h-1.1l-0.1-1.2h0c-0.4,0.8-1.2,1.3-2.3,1.3
		c-1.6,0-2.9-1.4-2.9-3.4c0-2.3,1.4-3.6,3-3.6c1,0,1.7,0.5,2,1h0v-4H66.3z M65.1,50.6c0-0.2,0-0.4-0.1-0.5c-0.2-0.8-0.9-1.4-1.8-1.4
		c-1.3,0-2,1.1-2,2.6c0,1.4,0.7,2.5,2,2.5c0.8,0,1.6-0.6,1.8-1.5c0-0.2,0.1-0.3,0.1-0.5V50.6z"/>
	<path style="fill:#231F20;" d="M68.8,51.5c0,1.6,1.1,2.3,2.3,2.3c0.9,0,1.4-0.2,1.9-0.3l0.2,0.9c-0.4,0.2-1.2,0.4-2.3,0.4
		c-2.1,0-3.3-1.4-3.3-3.4c0-2,1.2-3.6,3.2-3.6c2.2,0,2.8,1.9,2.8,3.2c0,0.3,0,0.4,0,0.6H68.8z M72.4,50.6c0-0.8-0.3-2-1.7-2
		c-1.3,0-1.8,1.1-1.9,2H72.4z"/>
	<path style="fill:#231F20;" d="M82.5,54.4c-0.3,0.2-1,0.4-1.9,0.4c-2,0-3.4-1.4-3.4-3.4c0-2.1,1.4-3.6,3.6-3.6
		c0.7,0,1.4,0.2,1.7,0.4L82.2,49c-0.3-0.2-0.8-0.3-1.4-0.3c-1.5,0-2.4,1.2-2.4,2.5c0,1.6,1,2.5,2.3,2.5c0.7,0,1.2-0.2,1.5-0.3
		L82.5,54.4z"/>
	<path style="fill:#231F20;" d="M88.5,53c0,0.6,0,1.2,0.1,1.6h-1.1l-0.1-0.8h0c-0.4,0.5-1.1,1-2.1,1c-1.4,0-2.1-1-2.1-1.9
		c0-1.6,1.5-2.5,4.1-2.5v-0.1c0-0.6-0.2-1.6-1.5-1.6c-0.6,0-1.3,0.2-1.8,0.5l-0.3-0.8c0.6-0.3,1.4-0.6,2.2-0.6
		c2.1,0,2.6,1.4,2.6,2.8V53z M87.3,51.2c-1.3,0-2.9,0.2-2.9,1.5c0,0.8,0.5,1.2,1.1,1.2c0.9,0,1.5-0.6,1.7-1.1c0-0.1,0.1-0.3,0.1-0.4
		V51.2z"/>
	<rect x="90.2" y="44.7" style="fill:#231F20;" width="1.2" height="9.9"/>
	<path style="fill:#231F20;" d="M93.9,46.7c-0.4,0-0.7-0.3-0.7-0.8c0-0.4,0.3-0.8,0.8-0.8c0.4,0,0.8,0.3,0.8,0.8
		C94.7,46.4,94.4,46.7,93.9,46.7L93.9,46.7z M93.3,47.9h1.2v6.7h-1.2V47.9z"/>
	<path style="fill:#231F20;" d="M102.2,44.7v8.1c0,0.6,0,1.3,0.1,1.7h-1.1l-0.1-1.2h0c-0.4,0.8-1.2,1.3-2.3,1.3
		c-1.6,0-2.9-1.4-2.9-3.4c0-2.3,1.4-3.6,3-3.6c1,0,1.7,0.5,2,1h0v-4H102.2z M100.9,50.6c0-0.2,0-0.4-0.1-0.5
		c-0.2-0.8-0.8-1.4-1.8-1.4c-1.3,0-2,1.1-2,2.6c0,1.4,0.7,2.5,2,2.5c0.8,0,1.6-0.6,1.8-1.5c0-0.2,0.1-0.3,0.1-0.5V50.6z"/>
	<path style="fill:#231F20;" d="M108.7,53c0,0.6,0,1.2,0.1,1.6h-1.1l-0.1-0.8h0c-0.4,0.5-1.1,1-2.1,1c-1.4,0-2.1-1-2.1-1.9
		c0-1.6,1.5-2.5,4.1-2.5v-0.1c0-0.6-0.2-1.6-1.5-1.6c-0.6,0-1.3,0.2-1.8,0.5l-0.3-0.8c0.6-0.3,1.4-0.6,2.2-0.6
		c2.1,0,2.6,1.4,2.6,2.8V53z M107.5,51.2c-1.3,0-2.9,0.2-2.9,1.5c0,0.8,0.5,1.2,1.1,1.2c0.9,0,1.5-0.6,1.7-1.1
		c0-0.1,0.1-0.3,0.1-0.4V51.2z"/>
	<path style="fill:#231F20;" d="M116.3,44.7v8.1c0,0.6,0,1.3,0.1,1.7h-1.1l-0.1-1.2h0c-0.4,0.8-1.2,1.3-2.3,1.3
		c-1.6,0-2.9-1.4-2.9-3.4c0-2.3,1.4-3.6,3-3.6c1,0,1.7,0.5,2,1h0v-4H116.3z M115.1,50.6c0-0.2,0-0.4-0.1-0.5
		c-0.2-0.8-0.8-1.4-1.8-1.4c-1.3,0-2,1.1-2,2.6c0,1.4,0.7,2.5,2,2.5c0.8,0,1.6-0.6,1.8-1.5c0-0.2,0.1-0.3,0.1-0.5V50.6z"/>
	<path style="fill:#231F20;" d="M132.7,8.5c0-0.5-0.1-1.1,0-1.6h0c-0.1,0.5-0.3,1-0.4,1.4l-0.5,1.6h-0.5l-0.5-1.6
		c-0.1-0.5-0.3-1-0.4-1.4h0c0,0.5,0,1.1-0.1,1.6l-0.1,1.5h-0.6l0.2-3.7h0.9l0.5,1.5c0.1,0.4,0.2,0.9,0.3,1.3h0
		c0.1-0.4,0.2-0.9,0.4-1.3l0.5-1.5h0.9l0.2,3.7h-0.7L132.7,8.5z"/>
	<path style="fill:#231F20;" d="M134.4,10.1c-0.2,0-0.4-0.2-0.4-0.4c0-0.2,0.2-0.4,0.4-0.4c0.3,0,0.4,0.2,0.4,0.4
		C134.8,9.9,134.6,10.1,134.4,10.1"/>
	<path style="fill:#231F20;" d="M135.3,6.4c0.2,0,0.6-0.1,1-0.1c0.5,0,0.9,0.1,1.1,0.3c0.2,0.2,0.3,0.4,0.3,0.7
		c0,0.5-0.3,0.8-0.7,0.9v0c0.3,0.1,0.4,0.4,0.5,0.7c0.1,0.5,0.2,0.9,0.3,1h-0.7c-0.1-0.1-0.1-0.4-0.2-0.9c-0.1-0.5-0.3-0.6-0.7-0.6
		H136v1.5h-0.7V6.4z M136,8h0.4c0.5,0,0.7-0.2,0.7-0.6c0-0.4-0.3-0.6-0.7-0.6c-0.2,0-0.3,0-0.4,0V8z"/>
	<path style="fill:#231F20;" d="M138.7,10.1c-0.2,0-0.4-0.2-0.4-0.4c0-0.2,0.2-0.4,0.4-0.4c0.2,0,0.4,0.2,0.4,0.4
		C139.1,9.9,138.9,10.1,138.7,10.1L138.7,10.1z"/>
	<path style="fill-rule:evenodd;clip-rule:evenodd;fill:#BF0024;" d="M1.6,6.3c0,0,25.6-2.3,62.1-2.3c42.5,0,62.1,2.3,62.1,2.3v30.9
		c0,0-19.7,2.6-62.1,2.6c-36.6,0-62.1-2.6-62.1-2.6V6.3z"/>
	<polygon style="fill-rule:evenodd;clip-rule:evenodd;fill:#FFFFFF;" points="10.7,31.2 16.6,31.2 16.6,23.7 22,23.7 22,31.2 
		27.8,31.2 27.8,12.3 22,12.3 22,18.9 16.6,18.9 16.6,12.3 10.7,12.3 	"/>
	<polygon style="fill-rule:evenodd;clip-rule:evenodd;fill:#FFFFFF;" points="96.8,31.2 103.5,31.2 106.8,25.6 110,31.2 117,31.2 
		110.3,21.2 116.3,12.3 109.9,12.3 107.1,17.4 104.2,12.3 97.4,12.3 103.6,21.1 	"/>
	<polygon style="fill-rule:evenodd;clip-rule:evenodd;fill:#FFFFFF;" points="78.2,12.3 72.2,12.3 69.1,23.8 66,12.3 60.1,12.3 
		65.8,31.2 72.3,31.2 	"/>
	<polygon style="fill-rule:evenodd;clip-rule:evenodd;fill:#FFFFFF;" points="49.6,31.2 62.3,31.2 62.3,26.4 55.4,26.4 55.4,12.3 
		49.6,12.3 	"/>
	<path style="fill-rule:evenodd;clip-rule:evenodd;fill:#FFFFFF;" d="M31,31.2h15.9v-4.8H36.8v-9.2h9.8v-4.8H31V31.2z M45.8,19.1
		v4.5h-8.7C41.3,19.3,45.8,19.1,45.8,19.1"/>
	<polygon style="fill-rule:evenodd;clip-rule:evenodd;fill:#FFFFFF;" points="79.6,31.2 95.5,31.2 95.5,26.4 85.4,26.4 85.4,17.1 
		95.2,17.1 95.2,12.3 79.6,12.3 	"/>
	<path style="fill-rule:evenodd;clip-rule:evenodd;fill:#FFFFFF;" d="M94.4,19.1v4.5h-8.7C89.9,19.3,94.4,19.1,94.4,19.1"/>
</g>
</svg>
